<svg preserveAspectRatio="none" width="100%" height="100%" overflow="visible" style="display: block;" viewBox="0 0 72 72" fill="none" xmlns="http://www.w3.org/2000/svg">
<g id="icon/carbon">
<path id="Vector" fill-rule="evenodd" clip-rule="evenodd" d="M21.9848 38.1704C21.9848 38.2043 21.9874 38.2512 21.9925 38.3137C21.9977 38.3475 22.0003 38.384 22.0003 38.4178C22.0003 38.871 21.6372 39.2382 21.1892 39.2382C19.7576 39.2382 18.4651 39.759 17.5485 40.6496C16.6679 41.5037 16.1246 42.7017 16.1246 44.1131C16.1246 45.4543 16.6679 46.673 17.5407 47.5559C18.4135 48.4387 19.6185 48.9881 20.9446 48.9881H42.8459C44.1719 48.9881 45.3769 48.4386 46.2498 47.5559C47.1227 46.6731 47.6659 45.4543 47.6659 44.1131C47.6659 42.772 47.1226 41.5533 46.2498 40.6704C45.377 39.7876 44.1694 39.2382 42.8459 39.2382H41.3114V39.2356C40.8994 39.2356 40.5466 38.9178 40.5054 38.496C40.423 37.621 40.0136 36.8371 39.4008 36.2772C38.7983 35.7226 37.995 35.384 37.1118 35.384C36.9084 35.384 36.7102 35.4023 36.5248 35.4335C36.342 35.4648 36.1695 35.509 36.0073 35.5663C35.603 35.7434 35.1318 35.5585 34.949 35.1497C34.4083 33.9413 33.5329 32.9179 32.4412 32.2043C31.3829 31.5142 30.1213 31.1132 28.767 31.1132C26.8951 31.1132 25.2009 31.8814 23.9728 33.121C22.7472 34.3606 21.9876 36.0767 21.9876 37.9699V38.173L21.9848 38.1704ZM54.1411 18.5612C57.8076 20.8815 60.4158 23.2565 62.1279 26.1598C62.2283 26.3317 62.3287 26.5062 62.4214 26.6807C62.4935 26.7926 62.563 26.9072 62.6326 27.0218L62.5991 27.0166C64.0178 29.79 64.6666 33.0166 64.6666 37.0605C64.6666 45.0212 61.4765 52.2271 56.3192 57.4431C51.162 62.6591 44.0374 65.8857 36.1666 65.8857C28.2958 65.8857 21.1711 62.6592 16.014 57.4431C10.8569 52.227 7.66663 45.0212 7.66663 37.0605C7.66663 29.0999 10.8567 21.894 16.014 16.678C21.1713 11.4619 28.2958 8.23535 36.1666 8.23535C36.6146 8.23535 36.9777 8.60254 36.9777 9.05568C36.9777 9.50882 36.6147 9.87601 36.1666 9.87601C28.7434 9.87601 22.026 12.9177 17.1596 17.8366C12.2958 22.7559 9.28878 29.5526 9.28878 37.0605C9.28878 44.5685 12.2961 51.3625 17.1596 56.2845C22.0233 61.2037 28.7434 64.2451 36.1666 64.2451C43.5899 64.2451 50.3072 61.2034 55.1737 56.2845C60.0374 51.3652 63.0445 44.5685 63.0445 37.0605C63.0445 32.8913 62.3261 29.6879 60.74 26.9979C60.6808 26.8964 60.619 26.7948 60.5547 26.6932C56.6359 25.9354 52.8229 24.3964 49.9774 22.1698C48.4789 20.9953 47.2533 19.6307 46.4371 18.0917C45.6337 16.5787 45.227 14.8912 45.3402 13.037C45.4715 10.8808 46.3084 8.4902 48.0463 5.88574C49.2771 9.01073 52.148 10.5446 55.1756 12.1565C59.5939 14.5133 64.3726 17.0628 63.7471 25.7344C62.8897 24.3881 61.9112 23.1277 60.8067 21.9584C59.2155 20.2683 57.3642 18.7631 55.2555 17.4402C54.877 17.2032 54.3775 17.323 54.1432 17.7058C53.9784 17.9741 53.9887 18.3022 54.138 18.5574L54.1411 18.5612ZM49.1924 43.0171C48.9632 41.6603 48.317 40.4442 47.3926 39.5093C46.2262 38.3296 44.6144 37.5952 42.8404 37.5952H41.983C41.7384 36.603 41.208 35.7254 40.4845 35.0614C39.591 34.2411 38.4041 33.7411 37.1038 33.7411C36.8155 33.7411 36.5271 33.7671 36.2438 33.8166C36.1975 33.8244 36.1512 33.8348 36.1048 33.8426C35.4328 32.6187 34.4672 31.5822 33.3086 30.8244C32.5773 30.3453 31.7663 29.9807 30.9012 29.7489C31.3209 28.5224 32.0753 27.4547 33.0537 26.6552C34.2149 25.7073 35.6954 25.1396 37.3098 25.1396C38.6667 25.1396 39.9284 25.5406 40.984 26.2307C42.0757 26.9443 42.9511 27.9651 43.4918 29.176C43.6746 29.5849 44.1458 29.7672 44.5501 29.5927C44.7097 29.538 44.8848 29.4937 45.0676 29.4599C45.2556 29.426 45.4512 29.4104 45.6547 29.4104C46.5378 29.4104 47.3411 29.749 47.9437 30.3036C48.5564 30.8661 48.9659 31.6473 49.0482 32.5223C49.0869 32.9468 49.4396 33.2645 49.8542 33.2619V33.2645H51.3887C52.7147 33.2645 53.9197 33.814 54.7926 34.6968C55.6654 35.5796 56.2087 36.7983 56.2087 38.1395C56.2087 39.4807 55.6654 40.6994 54.7926 41.5822C53.9198 42.465 52.7148 43.0145 51.3887 43.0145H49.1899L49.1924 43.0171Z" fill="url(#paint0_linear_2627_19739)"/>
</g>
<defs>
<linearGradient id="paint0_linear_2627_19739" x1="16.8499" y1="9.27149" x2="54.0273" y2="62.0074" gradientUnits="userSpaceOnUse">
<stop stop-color="#0B9143"/>
<stop offset="0.552885" stop-color="#538367"/>
<stop offset="1" stop-color="#00491F"/>
</linearGradient>
</defs>
</svg>
