<svg preserveAspectRatio="none" width="100%" height="100%" overflow="visible" style="display: block;" viewBox="0 0 72 72" fill="none" xmlns="http://www.w3.org/2000/svg">
<g id="icon/Local-Partnership">
<g id="Vector">
<path d="M40.2 37.6665C39.1301 36.6051 37.7231 36.559 36.84 36.8791V29.3331C36.84 21.8331 42.249 20.1664 42.249 20.1664C38.049 24.3331 38.049 28.4997 38.049 28.4997C48.129 28.4997 46.869 15.9998 46.869 15.9998C35.2877 15.9998 34.7198 23.0614 34.6918 27.4281C33.1221 24.8009 29.7385 22.6661 22.56 22.6661C22.56 22.6661 22.56 32.6661 32.64 32.6661C32.64 32.6661 32.64 29.3328 28.0709 25.9995C28.0709 25.9995 34.32 27.6661 34.32 34.3328V36.8328C34.32 36.8328 32.8631 36.3054 31.8 36.8328C30.12 37.6661 29.1395 38.2114 28.44 38.4994C27.7148 38.7974 26.2473 38.5647 25.9764 39.1374C26.9475 39.9167 28.0187 40.576 29.1564 41.1149C31.0703 41.8201 33.4524 42.4723 35.2458 42.629C35.4978 42.64 35.7452 42.6661 35.9999 42.6661C36.4011 42.6661 36.7948 42.6355 37.1886 42.6068C37.45 42.5856 37.749 42.5554 38.0723 42.5168C41.0097 42.1361 43.6964 40.9675 45.9095 39.2221C45.3355 38.8534 43.4304 37.6661 42.7201 37.6661C41.8801 37.6661 41.0401 38.4994 40.2001 37.6661L40.2 37.6665Z" fill="url(#paint0_linear_2627_19733)"/>
<path d="M36 6C24.4209 6 15 15.3461 15 26.8333C15 27.276 15.0188 27.7152 15.0464 28.1534C15.0584 28.3519 15.0752 28.5507 15.0921 28.7508C15.1048 28.8828 15.1177 29.0162 15.1323 29.1482C16.7426 45.0709 33.9735 64.5758 34.7413 65.4375C35.0611 65.7947 35.5196 66 36 66C36.4804 66 36.9389 65.7947 37.2587 65.4366C38.0268 64.5753 55.2577 45.0706 56.8677 29.1473C56.8819 29.0153 56.8952 28.8819 56.9079 28.7499C56.9248 28.5498 56.9423 28.3513 56.9536 28.1525C56.9812 27.7146 57 27.2751 57 26.8324C57 15.3458 47.5791 6.00022 36 6.00022L36 6ZM36 44.3332C26.2582 44.3332 18.36 36.4977 18.36 26.8333C18.36 17.1689 26.2582 9.33332 36 9.33332C45.7417 9.33332 53.64 17.1689 53.64 26.8333C53.64 36.4977 45.7417 44.3332 36 44.3332Z" fill="url(#paint1_linear_2627_19733)"/>
</g>
</g>
<defs>
<linearGradient id="paint0_linear_2627_19733" x1="21.7666" y1="9.38574" x2="61.2006" y2="50.6023" gradientUnits="userSpaceOnUse">
<stop stop-color="#0B9143"/>
<stop offset="0.552885" stop-color="#538367"/>
<stop offset="1" stop-color="#00491F"/>
</linearGradient>
<linearGradient id="paint1_linear_2627_19733" x1="21.7666" y1="9.38574" x2="61.2006" y2="50.6023" gradientUnits="userSpaceOnUse">
<stop stop-color="#0B9143"/>
<stop offset="0.552885" stop-color="#538367"/>
<stop offset="1" stop-color="#00491F"/>
</linearGradient>
</defs>
</svg>
