<svg preserveAspectRatio="none" width="100%" height="100%" overflow="visible" style="display: block;" viewBox="0 0 72 72" fill="none" xmlns="http://www.w3.org/2000/svg">
<g id="icon/Recycle">
<g id="Vector">
<path d="M36.0637 16.7258C37.8951 19.7266 39.7241 22.7321 41.5506 25.7377C40.2841 26.4541 39.0639 27.2417 37.7826 27.9343V27.9319C37.2398 28.2047 36.7166 28.5107 36.2177 28.8523C36.2177 28.9258 36.2202 29.0753 36.2226 29.1488C37.8585 29.5995 39.5505 29.8131 41.2157 30.1451C43.1033 30.4203 44.9715 30.8022 46.8591 31.0702C47.446 31.2007 48.0328 31.3146 48.6221 31.4261C49.3996 31.6111 50.1967 31.7012 50.9816 31.8507C51.2506 31.0322 51.6981 30.2851 52.0257 29.488C52.9427 27.384 53.911 25.3036 54.8426 23.2064C55.2363 22.362 55.6128 21.5103 56.0138 20.6706C56.3855 19.8238 56.7547 18.9721 57.1826 18.149C57.2462 17.9213 57.4736 17.6746 57.3049 17.4421C57.1851 17.2452 56.8965 17.3472 56.7254 17.4184C56.0163 17.7647 55.3536 18.1941 54.6592 18.5712C53.6078 19.1334 52.6028 19.7787 51.544 20.3266C51.0183 19.2947 50.3679 18.3269 49.8104 17.3092C48.7395 15.5633 47.7173 13.7937 46.6513 12.0478H46.6586C46.3554 11.5283 46.0008 11.0396 45.5998 10.5866C45.1475 10.1121 44.5949 9.73499 43.9812 9.48115C42.9615 9.08737 41.8612 8.93081 40.7707 9.02807C40.064 9.01146 39.3598 9.00435 38.6556 9.02095C36.1982 9.03044 33.7408 9.0257 31.2811 9.03281C31.9487 10.0505 32.5795 11.0895 33.247 12.1071C34.1566 13.6609 35.1565 15.1673 36.0637 16.7258Z" fill="url(#paint0_linear_2627_19736)"/>
<path d="M34.2328 17.0556C32.8219 14.7641 31.4355 12.456 29.9781 10.1904H29.9806C29.7214 9.69699 29.2642 9.33166 28.7189 9.17984C27.1907 9.27235 25.8141 10.0978 25.0463 11.3812C23.9557 13.018 23.0094 14.7425 21.9262 16.3817C20.7207 18.36 19.4639 20.31 18.2462 22.2812C18.0604 22.5445 17.8966 22.8197 17.7523 23.1067C18.794 23.6404 19.772 24.2857 20.8185 24.8146C22.2074 25.6164 23.6427 26.3376 25.0169 27.1654C26.215 27.8747 27.4938 28.4559 28.6479 29.2339C29.2592 28.3847 29.7727 27.4762 30.34 26.6009C31.345 25.0329 32.2741 23.4198 33.2987 21.8637C33.7681 21.0999 34.2327 20.3313 34.7071 19.5698H34.7046C34.8733 19.2804 35.0641 19.0053 35.2817 18.7491C34.9027 18.2035 34.5604 17.6321 34.2328 17.0556Z" fill="url(#paint1_linear_2627_19736)"/>
<path d="M19.2854 44.6317C19.9554 43.6116 20.5764 42.5632 21.2513 41.5479C21.5692 41.0047 21.975 40.5113 22.2587 39.9514C23.0094 40.2622 23.716 40.6726 24.4374 41.0474C25.5475 41.657 26.6796 42.2216 27.7897 42.8265H27.7873C27.8924 42.8597 28.0073 42.8407 28.0954 42.7743C28.1834 42.7103 28.2323 42.6059 28.2274 42.4991C28.1247 42.1836 27.9853 41.88 27.8093 41.593C26.5353 39.0785 25.2736 36.5569 23.9801 34.0519C23.1464 32.3487 22.2661 30.6669 21.4274 28.966C18.8429 29.2032 16.2754 29.6041 13.6886 29.8176C11.6665 30.0572 9.64679 30.3134 7.61485 30.4818C7.29209 30.4818 6.90332 30.5672 6.81287 30.9159L6.81531 30.9183C6.9229 31.0654 7.06716 31.1863 7.22855 31.2717C8.90594 32.1803 10.5858 33.0817 12.2338 34.0424C12.1751 34.1658 12.1116 34.2891 12.0406 34.4077C10.3608 37.2234 8.54408 39.9609 6.81041 42.7455C6.17712 43.7205 5.90326 44.8733 6.0304 46.0191C6.27981 47.1268 6.77617 48.1682 7.4877 49.0696C8.96948 51.4157 10.4268 53.776 11.9623 56.089C13.4343 53.8094 14.8403 51.4847 16.3587 49.2312C17.3123 47.6845 18.322 46.1711 19.2854 44.6317Z" fill="url(#paint2_linear_2627_19736)"/>
<path d="M65.9265 44.0365C65.6306 42.9667 65.1367 41.9561 64.4692 41.0547C62.4348 37.653 60.398 34.2515 58.3636 30.8496C57.9724 31.0014 57.6007 31.1912 57.2487 31.4141C55.3096 32.5219 53.3828 33.6463 51.4414 34.7446C50.0794 35.4919 48.7737 36.3292 47.402 37.0599C49.698 40.6608 51.9158 44.307 54.1799 47.9245C57.6961 47.9126 61.212 47.9506 64.7287 47.915V47.9174C65.2837 47.5212 65.6798 46.9472 65.8461 46.2996C66.0197 45.5571 66.0463 44.7885 65.9265 44.0365Z" fill="url(#paint3_linear_2627_19736)"/>
<path d="M51.4536 49.5445C49.0525 49.5421 46.6513 49.5729 44.2525 49.5421C44.2452 47.4095 44.2477 45.277 44.2452 43.1469C44.233 43.0331 44.2525 42.8979 44.1718 42.8054C44.0887 42.6962 43.9567 42.6322 43.8173 42.6322C43.6779 42.6346 43.5459 42.6986 43.4652 42.8077C43.0275 43.3557 42.6607 43.9535 42.2646 44.5299C41.3036 46.0148 40.2596 47.4476 39.257 48.9065C38.4648 50.0996 37.6041 51.2454 36.8021 52.4291C36.2495 53.2048 35.6797 53.9687 35.1638 54.7704C37.3082 57.5482 39.372 60.3829 41.4848 63.1823V63.1847C42.1768 64.1573 42.9177 65.0942 43.7074 65.9909C43.8346 66.017 43.9642 65.9862 44.0644 65.9056C44.1647 65.8249 44.2209 65.7063 44.2185 65.5806C44.2405 64.0079 44.2331 62.4375 44.2307 60.8648H44.2331C44.4899 60.8292 44.7491 60.8173 45.0083 60.8315C46.5414 60.8339 48.0769 60.8292 49.6101 60.8339C50.5637 60.8292 51.5149 60.8315 52.4661 60.8363C53.0798 60.8268 53.696 60.8363 54.3097 60.8292H54.3122C55.7035 60.8031 57.0141 60.1958 57.9114 59.1639C58.2807 58.7037 58.6132 58.2151 58.9066 57.7074C60.2539 55.6342 61.5743 53.5491 62.8726 51.4471C63.2419 50.8636 63.6453 50.299 63.9876 49.6988C61.2221 49.706 58.4542 49.7036 55.6886 49.7155C54.2728 49.7368 52.8694 49.5018 51.4536 49.5445Z" fill="url(#paint4_linear_2627_19736)"/>
<path d="M29.3496 49.0392C26.9558 49.0629 24.562 49.0653 22.1679 49.0606C20.9503 49.0772 19.7301 49.0274 18.5149 49.0867C17.4561 50.6594 16.4683 52.2772 15.4193 53.8571C14.945 54.6161 14.4192 55.3491 14.006 56.1438L14.0085 56.1462C13.5855 56.8673 13.5145 57.7331 13.8153 58.5088C14.3581 59.5834 15.3607 60.3733 16.5563 60.6651C16.9427 60.7671 17.3388 60.8217 17.7398 60.8288H31.4008C31.4032 56.9124 31.3861 52.998 31.4155 49.0818C30.7283 49.0248 30.0392 49.0107 29.3496 49.0392Z" fill="url(#paint5_linear_2627_19736)"/>
</g>
</g>
<defs>
<linearGradient id="paint0_linear_2627_19736" x1="15.6666" y1="12.2165" x2="49.6333" y2="65.6032" gradientUnits="userSpaceOnUse">
<stop stop-color="#0B9143"/>
<stop offset="0.552885" stop-color="#538367"/>
<stop offset="1" stop-color="#00491F"/>
</linearGradient>
<linearGradient id="paint1_linear_2627_19736" x1="15.6666" y1="12.2165" x2="49.6333" y2="65.6032" gradientUnits="userSpaceOnUse">
<stop stop-color="#0B9143"/>
<stop offset="0.552885" stop-color="#538367"/>
<stop offset="1" stop-color="#00491F"/>
</linearGradient>
<linearGradient id="paint2_linear_2627_19736" x1="15.6666" y1="12.2165" x2="49.6333" y2="65.6032" gradientUnits="userSpaceOnUse">
<stop stop-color="#0B9143"/>
<stop offset="0.552885" stop-color="#538367"/>
<stop offset="1" stop-color="#00491F"/>
</linearGradient>
<linearGradient id="paint3_linear_2627_19736" x1="15.6666" y1="12.2165" x2="49.6333" y2="65.6032" gradientUnits="userSpaceOnUse">
<stop stop-color="#0B9143"/>
<stop offset="0.552885" stop-color="#538367"/>
<stop offset="1" stop-color="#00491F"/>
</linearGradient>
<linearGradient id="paint4_linear_2627_19736" x1="15.6666" y1="12.2165" x2="49.6333" y2="65.6032" gradientUnits="userSpaceOnUse">
<stop stop-color="#0B9143"/>
<stop offset="0.552885" stop-color="#538367"/>
<stop offset="1" stop-color="#00491F"/>
</linearGradient>
<linearGradient id="paint5_linear_2627_19736" x1="15.6666" y1="12.2165" x2="49.6333" y2="65.6032" gradientUnits="userSpaceOnUse">
<stop stop-color="#0B9143"/>
<stop offset="0.552885" stop-color="#538367"/>
<stop offset="1" stop-color="#00491F"/>
</linearGradient>
</defs>
</svg>
