<svg preserveAspectRatio="none" width="100%" height="100%" overflow="visible" style="display: block;" viewBox="0 0 99 48" fill="none" xmlns="http://www.w3.org/2000/svg">
<g id="Logotext">
<g id="Vector">
<path d="M19.2662 16.844C19.7142 17.292 20.2742 17.516 20.9462 17.516C21.6182 17.516 22.1689 17.292 22.5982 16.844C23.0275 16.3773 23.2422 15.8173 23.2422 15.164C23.2422 14.492 23.0275 13.932 22.5982 13.484C22.1689 13.036 21.6182 12.812 20.9462 12.812C20.2742 12.812 19.7142 13.036 19.2662 13.484C18.8369 13.932 18.6222 14.492 18.6222 15.164C18.6222 15.8173 18.8369 16.3773 19.2662 16.844Z" fill="var(--fill-0, #0A0D12)"/>
<path d="M4.396 23.2725L11.956 33H17.416L9.13811 22.6398L17.136 13.232H11.704L4.396 22.1494V13.232H0V33H4.396V23.2725Z" fill="var(--fill-0, #0A0D12)"/>
<path d="M30.039 23.592C29.6656 24.04 29.479 24.656 29.479 25.44V33H25.195V25.356C25.195 24.1053 25.4656 23.0133 26.007 22.08C26.567 21.128 27.3323 20.3907 28.303 19.868C29.2923 19.3453 30.431 19.084 31.719 19.084C33.0256 19.084 34.1643 19.3453 35.135 19.868C36.1056 20.3907 36.8616 21.1187 37.403 22.052C37.9443 22.9853 38.215 24.0867 38.215 25.356V33H33.931V25.44C33.931 24.656 33.735 24.04 33.343 23.592C32.9696 23.1253 32.4283 22.892 31.719 22.892C30.991 22.892 30.431 23.1253 30.039 23.592Z" fill="var(--fill-0, #0A0D12)"/>
<path d="M44.6541 32.664C45.4754 33.0933 46.4274 33.308 47.5101 33.308C48.5554 33.308 49.4048 33.1493 50.0581 32.832C50.7114 32.5147 51.2994 32.0573 51.8221 31.46L49.2181 28.828C49.0314 29.0333 48.8168 29.192 48.5741 29.304C48.3501 29.3973 48.0794 29.444 47.7621 29.444C47.3888 29.444 47.0621 29.3227 46.7821 29.08C46.5208 28.8373 46.3901 28.4733 46.3901 27.988V23.06H50.8421V19.392H46.3901V13.764H42.1061V19.392H39.0821V23.06H42.1061V27.96C42.1061 29.0613 42.3301 30.0133 42.7781 30.816C43.2261 31.6187 43.8514 32.2347 44.6541 32.664Z" fill="var(--fill-0, #0A0D12)"/>
<path d="M58.0232 33.336C57.2206 33.336 56.4272 33.2333 55.6432 33.028C54.8779 32.8227 54.1592 32.5333 53.4872 32.16C52.8339 31.768 52.2739 31.32 51.8072 30.816L54.2432 28.352C54.6912 28.8373 55.2232 29.22 55.8392 29.5C56.4552 29.7613 57.1272 29.892 57.8552 29.892C58.3592 29.892 58.7419 29.8173 59.0032 29.668C59.2832 29.5187 59.4232 29.3133 59.4232 29.052C59.4232 28.716 59.2552 28.464 58.9192 28.296C58.6019 28.1093 58.1912 27.9507 57.6872 27.82C57.1832 27.6707 56.6512 27.512 56.0912 27.344C55.5312 27.176 54.9992 26.9427 54.4952 26.644C53.9912 26.3453 53.5806 25.9347 53.2632 25.412C52.9459 24.8707 52.7872 24.1893 52.7872 23.368C52.7872 22.4907 53.0112 21.7347 53.4592 21.1C53.9072 20.4467 54.5419 19.9333 55.3632 19.56C56.1846 19.1867 57.1459 19 58.2472 19C59.4045 19 60.4686 19.2053 61.4392 19.616C62.4286 20.008 63.2312 20.596 63.8472 21.38L61.4112 23.844C60.9819 23.34 60.4965 22.9853 59.9552 22.78C59.4325 22.5747 58.9192 22.472 58.4152 22.472C57.9299 22.472 57.5659 22.5467 57.3232 22.696C57.0806 22.8267 56.9592 23.0227 56.9592 23.284C56.9592 23.564 57.1179 23.788 57.4352 23.956C57.7526 24.124 58.1632 24.2733 58.6672 24.404C59.1712 24.5347 59.7032 24.6933 60.2632 24.88C60.8232 25.0667 61.3552 25.3187 61.8592 25.636C62.3632 25.9533 62.7739 26.3827 63.0912 26.924C63.4086 27.4467 63.5672 28.1373 63.5672 28.996C63.5672 30.3213 63.0632 31.376 62.0552 32.16C61.0659 32.944 59.7219 33.336 58.0232 33.336Z" fill="var(--fill-0, #0A0D12)"/>
<path d="M68.0474 32.552C69.0181 33.056 70.1288 33.308 71.3794 33.308C72.6301 33.308 73.7314 33.056 74.6834 32.552C75.6354 32.0293 76.3821 31.32 76.9234 30.424C77.4648 29.5093 77.7354 28.4547 77.7354 27.26V19.392H73.4514V27.232C73.4514 27.9413 73.2648 28.5013 72.8914 28.912C72.5181 29.304 72.0141 29.5 71.3794 29.5C70.9314 29.5 70.5488 29.4067 70.2314 29.22C69.9141 29.0333 69.6714 28.772 69.5034 28.436C69.3541 28.1 69.2794 27.6987 69.2794 27.232V19.392H64.9954V27.288C64.9954 28.464 65.2661 29.5093 65.8074 30.424C66.3488 31.32 67.0954 32.0293 68.0474 32.552Z" fill="var(--fill-0, #0A0D12)"/>
<path fillRule="evenodd" clipRule="evenodd" d="M85.2412 39.048C83.9905 39.048 82.8612 38.824 81.8532 38.376C80.8639 37.928 80.0799 37.3027 79.5012 36.5C78.9412 35.716 78.6612 34.8107 78.6612 33.784C78.6612 32.9627 78.7732 32.2907 78.9972 31.768C79.2399 31.2453 79.6039 30.732 80.0892 30.228L83.1412 32.188C82.9732 32.3747 82.8425 32.5707 82.7492 32.776C82.6559 32.9813 82.6092 33.224 82.6092 33.504C82.6092 34.064 82.8425 34.512 83.3092 34.848C83.7759 35.184 84.4292 35.352 85.2692 35.352C86.1652 35.352 86.8559 35.1373 87.3412 34.708C87.8265 34.2973 88.0692 33.7093 88.0692 32.944C88.0692 32.44 87.9479 32.0013 87.7052 31.628C87.4625 31.236 87.1172 30.9373 86.6692 30.732C86.2399 30.508 85.7452 30.396 85.1852 30.396C84.1212 30.396 83.1599 30.1533 82.3012 29.668C81.4612 29.164 80.7892 28.492 80.2852 27.652C79.7999 26.7933 79.5572 25.832 79.5572 24.768C79.5572 23.6667 79.8092 22.696 80.3132 21.856C80.8359 20.9973 81.5359 20.3253 82.4132 19.84C83.3092 19.3547 84.3079 19.112 85.4092 19.112C86.3542 19.112 87.2168 19.2907 87.9969 19.648L90.2532 17.432L92.7172 19.896L90.6257 21.9875C91.0494 22.7302 91.2612 23.5637 91.2612 24.488C91.2612 25.5147 91.0092 26.42 90.5052 27.204C90.1908 27.7119 89.798 28.1493 89.3269 28.5162C90.0563 28.984 90.6451 29.5732 91.0932 30.284C91.6345 31.1427 91.9052 32.1227 91.9052 33.224C91.9052 34.3627 91.6252 35.3707 91.0652 36.248C90.5052 37.1253 89.7305 37.8067 88.7412 38.292C87.7519 38.796 86.5852 39.048 85.2412 39.048ZM85.4092 26.868C85.8385 26.868 86.2119 26.784 86.5292 26.616C86.8465 26.4293 87.0985 26.1773 87.2852 25.86C87.4719 25.5427 87.5652 25.1787 87.5652 24.768C87.5652 24.3573 87.4719 23.9933 87.2852 23.676C87.1172 23.3587 86.8652 23.116 86.5292 22.948C86.2119 22.7613 85.8385 22.668 85.4092 22.668C84.9799 22.668 84.6065 22.7613 84.2892 22.948C83.9718 23.116 83.7199 23.3587 83.5332 23.676C83.3465 23.9933 83.2532 24.3573 83.2532 24.768C83.2532 25.1787 83.3465 25.5427 83.5332 25.86C83.7199 26.1773 83.9718 26.4293 84.2892 26.616C84.6252 26.784 84.9985 26.868 85.4092 26.868Z" fill="var(--fill-0, #0A0D12)"/>
<path d="M94.3281 16.844C94.7761 17.292 95.3361 17.516 96.0081 17.516C96.6801 17.516 97.2307 17.292 97.6601 16.844C98.0894 16.3773 98.3041 15.8173 98.3041 15.164C98.3041 14.492 98.0894 13.932 97.6601 13.484C97.2307 13.036 96.6801 12.812 96.0081 12.812C95.3361 12.812 94.7761 13.036 94.3281 13.484C93.8987 13.932 93.6841 14.492 93.6841 15.164C93.6841 15.8173 93.8987 16.3773 94.3281 16.844Z" fill="var(--fill-0, #0A0D12)"/>
<path d="M18.7902 19.392V33H23.0742V19.392H18.7902Z" fill="var(--fill-0, #0A0D12)"/>
<path d="M93.8521 19.392V33H98.1361V19.392H93.8521Z" fill="var(--fill-0, #0A0D12)"/>
</g>
</g>
</svg>
