<svg preserveAspectRatio="none" width="100%" height="100%" overflow="visible" style="display: block;" viewBox="0 0 48 48" fill="none" xmlns="http://www.w3.org/2000/svg">
<g id="Logomark">
<path id="Vector" fillRule="evenodd" clipRule="evenodd" d="M16.1746 28.4933L20.7434 33.0621C23.5238 35.8425 28.0316 35.8425 30.812 33.0621C31.7289 32.1452 32.3435 31.0403 32.6556 29.8715L35.8462 33.0621C38.6266 35.8425 43.1344 35.8425 45.9147 33.0621C48.6951 30.2818 48.6951 25.774 45.9147 22.9936L35.8462 12.9251C33.0659 10.1448 28.558 10.1448 25.7777 12.9251C24.8607 13.8421 24.2462 14.9469 23.9341 16.1157L20.7434 12.9251C17.9631 10.1448 13.4553 10.1448 10.6749 12.9251L2.38936 21.2107C-0.796453 24.3965 -0.796453 29.5617 2.38936 32.7475C5.57517 35.9333 10.7404 35.9333 13.9262 32.7475C15.1322 31.5415 15.8817 30.0519 16.1746 28.4933ZM18.2263 15.4422C16.8361 14.0521 14.5822 14.0521 13.192 15.4422C11.8025 16.8318 11.8019 19.0844 13.1903 20.4747L23.2606 30.545C24.6507 31.9352 26.9047 31.9352 28.2948 30.545C29.6843 29.1556 29.685 26.9033 28.297 25.513L18.2263 15.4422ZM11.4091 23.7278L8.15778 20.4765L4.90649 23.7278C3.11085 25.5234 3.11085 28.4347 4.90649 30.2304C6.70213 32.026 9.61344 32.026 11.4091 30.2304C13.2047 28.4347 13.2047 25.5234 11.4091 23.7278ZM28.2919 20.4735C26.9047 19.0831 26.9056 16.8314 28.2948 15.4422C29.685 14.0521 31.9389 14.0521 33.3291 15.4422L43.3976 25.5108C44.7878 26.9009 44.7878 29.1548 43.3976 30.545C42.0074 31.9352 39.7535 31.9352 38.3634 30.545L28.2919 20.4735Z" fill="var(--fill-0, #DD2590)"/>
</g>
</svg>
