<svg preserveAspectRatio="none" width="100%" height="100%" overflow="visible" style="display: block;" viewBox="0 0 125 48" fill="none" xmlns="http://www.w3.org/2000/svg">
<g id="Logotext">
<g id="Vector">
<path d="M4.553 32.9998H0V11.5398H4.553L10.933 25.5478L17.342 11.5398H21.953V32.9998H17.4V28.5048C17.4 23.8648 17.4 22.8498 17.632 21.2548L13.079 30.9998H8.787L4.263 21.2548C4.524 22.8498 4.553 24.6478 4.553 26.9968V32.9998Z" fill="var(--fill-0, #0A0D12)"/>
<path d="M30.2509 33.3768C27.1769 33.3768 25.2629 31.5788 25.2629 28.7368C25.2629 26.0688 27.1479 24.4158 30.6279 24.1548L34.6879 23.8358V23.6038C34.6879 22.1828 33.8179 21.4288 32.2229 21.4288C30.3379 21.4288 29.3229 22.1538 29.3229 23.4588H25.6109C25.6109 20.1818 28.3079 18.0358 32.4549 18.0358C36.6599 18.0358 39.0379 20.3848 39.0379 24.5318V32.9998H35.0939L34.8039 31.0858C34.3399 32.4198 32.4259 33.3768 30.2509 33.3768ZM31.8169 30.0708C33.5279 30.0708 34.7169 29.2298 34.7169 27.5768V26.7938L32.4549 26.9968C30.5119 27.1708 29.8159 27.6058 29.8159 28.5338C29.8159 29.5778 30.4539 30.0708 31.8169 30.0708Z" fill="var(--fill-0, #0A0D12)"/>
<path d="M41.516 25.4888C41.516 21.0808 44.387 18.0068 48.476 18.0068C50.448 18.0068 52.014 18.7608 52.797 19.9498L53.029 18.4998H57.234V32.0718C57.234 37.2628 54.247 40.3948 49.288 40.3948C44.851 40.3948 41.864 37.8718 41.458 33.7538H45.982C46.069 35.3778 47.287 36.3348 49.259 36.3348C51.405 36.3348 52.768 35.0588 52.768 32.9998V31.1148C51.898 32.1588 50.274 32.8258 48.389 32.8258C44.329 32.8258 41.516 29.8388 41.516 25.4888ZM46.011 25.3728C46.011 27.4608 47.403 28.9398 49.375 28.9398C51.405 28.9398 52.768 27.5188 52.768 25.3728C52.768 23.2558 51.405 21.8928 49.346 21.8928C47.374 21.8928 46.011 23.3138 46.011 25.3728Z" fill="var(--fill-0, #0A0D12)"/>
<path d="M65.0586 32.9998H60.5926V18.4998H64.7976L65.0876 20.0078C65.9866 18.7608 67.6396 18.0358 69.5246 18.0358C72.9756 18.0358 74.9766 20.2398 74.9766 24.0388V32.9998H70.5106V25.1118C70.5106 23.2848 69.4956 22.0958 67.9586 22.0958C66.1896 22.0958 65.0586 23.2558 65.0586 25.0538V32.9998Z" fill="var(--fill-0, #0A0D12)"/>
<path d="M77.3965 25.7208C77.3965 21.1388 80.7605 18.0648 85.4005 18.0648C90.0115 18.0648 93.3755 21.1388 93.3755 25.7208C93.3755 30.3028 90.0115 33.3478 85.4005 33.3478C80.7605 33.3478 77.3965 30.3028 77.3965 25.7208ZM81.8915 25.6918C81.8915 27.8958 83.3125 29.3458 85.4005 29.3458C87.4595 29.3458 88.8805 27.8958 88.8805 25.6918C88.8805 23.5168 87.4595 22.0668 85.4005 22.0668C83.3125 22.0668 81.8915 23.5168 81.8915 25.6918Z" fill="var(--fill-0, #0A0D12)"/>
<path d="M100.431 32.9998H95.9646V11.1338H100.431V32.9998Z" fill="var(--fill-0, #0A0D12)"/>
<path d="M105.985 16.2378C104.564 16.2378 103.433 15.1068 103.433 13.6858C103.433 12.2648 104.564 11.1628 105.985 11.1628C107.377 11.1628 108.508 12.2648 108.508 13.6858C108.508 15.1068 107.377 16.2378 105.985 16.2378ZM103.781 32.9998V18.4998H108.247V32.9998H103.781Z" fill="var(--fill-0, #0A0D12)"/>
<path d="M115.976 33.3768C112.902 33.3768 110.988 31.5788 110.988 28.7368C110.988 26.0688 112.873 24.4158 116.353 24.1548L120.413 23.8358V23.6038C120.413 22.1828 119.543 21.4288 117.948 21.4288C116.063 21.4288 115.048 22.1538 115.048 23.4588H111.336C111.336 20.1818 114.033 18.0358 118.18 18.0358C122.385 18.0358 124.763 20.3848 124.763 24.5318V32.9998H120.819L120.529 31.0858C120.065 32.4198 118.151 33.3768 115.976 33.3768ZM117.542 30.0708C119.253 30.0708 120.442 29.2298 120.442 27.5768V26.7938L118.18 26.9968C116.237 27.1708 115.541 27.6058 115.541 28.5338C115.541 29.5778 116.179 30.0708 117.542 30.0708Z" fill="var(--fill-0, #0A0D12)"/>
</g>
</g>
</svg>
