<svg preserveAspectRatio="none" width="100%" height="100%" overflow="visible" style="display: block;" viewBox="0 0 140 48" fill="none" xmlns="http://www.w3.org/2000/svg">
<g id="Logotext">
<g id="Vector">
<path d="M19.92 23.22C19.92 25.98 19.03 28.35 17.25 30.33C15.49 32.31 13.03 33.3 9.87 33.3C6.69 33.3 4.25 32.31 2.55 30.33C0.85 28.35 0 26 0 23.28C0 20.44 0.9 18.05 2.7 16.11C4.5 14.17 6.93 13.2 9.99 13.2C13.11 13.2 15.54 14.19 17.28 16.17C19.04 18.13 19.92 20.48 19.92 23.22ZM15.57 23.34C15.57 21.26 15.09 19.64 14.13 18.48C13.17 17.32 11.78 16.74 9.96 16.74C8.02 16.74 6.6 17.36 5.7 18.6C4.8 19.82 4.35 21.35 4.35 23.19C4.35 24.97 4.79 26.51 5.67 27.81C6.55 29.11 8.02 29.76 10.08 29.76C11.98 29.76 13.37 29.17 14.25 27.99C15.13 26.79 15.57 25.24 15.57 23.34Z" fill="var(--fill-0, #0A0D12)"/>
<path d="M36.7174 33H31.0474V30.48C30.6674 31.26 30.1074 31.93 29.3674 32.49C28.6274 33.03 27.6474 33.3 26.4274 33.3C24.6474 33.3 23.2474 32.69 22.2274 31.47C21.2074 30.25 20.6974 28.59 20.6974 26.49C20.6974 24.47 21.1974 22.75 22.1974 21.33C23.1974 19.91 24.7074 19.2 26.7274 19.2C27.8274 19.2 28.7274 19.42 29.4274 19.86C30.1274 20.3 30.6674 20.86 31.0474 21.54V15.3H28.3474V12.36H34.9174V30.09H36.7174V33ZM31.0474 26.16V25.83C31.0474 24.71 30.7474 23.84 30.1474 23.22C29.5674 22.58 28.8374 22.26 27.9574 22.26C27.0974 22.26 26.3374 22.58 25.6774 23.22C25.0374 23.86 24.7174 24.87 24.7174 26.25C24.7174 27.55 25.0174 28.54 25.6174 29.22C26.2174 29.9 26.9274 30.24 27.7474 30.24C28.7674 30.24 29.5674 29.81 30.1474 28.95C30.7474 28.09 31.0474 27.16 31.0474 26.16Z" fill="var(--fill-0, #0A0D12)"/>
<path d="M50.4368 28.74C50.3368 29.94 49.7468 31 48.6668 31.92C47.5868 32.84 46.0768 33.3 44.1368 33.3C42.1168 33.3 40.4468 32.73 39.1268 31.59C37.8268 30.45 37.1768 28.75 37.1768 26.49C37.1768 24.41 37.7668 22.68 38.9468 21.3C40.1468 19.9 41.8168 19.2 43.9568 19.2C45.8368 19.2 47.3568 19.74 48.5168 20.82C49.6968 21.9 50.2968 23.32 50.3168 25.08C50.3168 25.74 50.2468 26.39 50.1068 27.03H41.2268C41.4468 29.17 42.5068 30.24 44.4068 30.24C45.4468 30.24 46.1468 29.99 46.5068 29.49C46.8868 28.99 47.1168 28.54 47.1968 28.14L50.4368 28.74ZM46.3268 24.78C46.4068 24.1 46.2568 23.46 45.8768 22.86C45.5168 22.26 44.8768 21.96 43.9568 21.96C43.1568 21.96 42.5368 22.22 42.0968 22.74C41.6568 23.26 41.3768 23.94 41.2568 24.78H46.3268Z" fill="var(--fill-0, #0A0D12)"/>
<path d="M52.4888 20.43C53.6688 19.95 54.6488 19.63 55.4288 19.47C56.2288 19.29 57.1788 19.2 58.2788 19.2C59.7388 19.2 60.9988 19.58 62.0588 20.34C63.1188 21.1 63.6488 22.25 63.6488 23.79V29.67C63.6488 30.37 63.9588 30.72 64.5788 30.72C64.7588 30.72 64.9488 30.69 65.1488 30.63L65.1787 32.67C64.3987 33.09 63.5888 33.3 62.7488 33.3C60.9688 33.3 59.9788 32.41 59.7788 30.63V30.6C59.3988 31.28 58.8488 31.9 58.1287 32.46C57.4287 33.02 56.5288 33.3 55.4288 33.3C54.4488 33.3 53.5087 33.01 52.6087 32.43C51.7087 31.85 51.2588 30.85 51.2588 29.43C51.2588 27.77 51.9188 26.67 53.2388 26.13C54.5788 25.59 56.0187 25.32 57.5588 25.32C58.4187 25.32 59.1588 25.36 59.7788 25.44V24.99C59.7788 24.29 59.6788 23.61 59.4788 22.95C59.2988 22.29 58.6588 21.96 57.5588 21.96C57.1587 21.96 56.7887 21.99 56.4487 22.05C56.1287 22.09 55.8088 22.19 55.4888 22.35L54.9788 24.27L51.8888 23.94L52.4888 20.43ZM59.7788 27.48V27.3C59.4588 27.26 59.1287 27.22 58.7887 27.18C58.4687 27.14 58.1488 27.12 57.8288 27.12C57.1488 27.12 56.5488 27.25 56.0288 27.51C55.5088 27.75 55.2488 28.24 55.2488 28.98C55.2488 29.42 55.3687 29.79 55.6087 30.09C55.8487 30.39 56.2588 30.54 56.8388 30.54C57.5188 30.54 58.1488 30.3 58.7288 29.82C59.3288 29.32 59.6788 28.54 59.7788 27.48Z" fill="var(--fill-0, #0A0D12)"/>
<path d="M80.1145 26.25C80.1145 28.39 79.4145 30.1 78.0145 31.38C76.6145 32.66 74.8345 33.3 72.6745 33.3C70.5945 33.3 68.8945 32.7 67.5745 31.5C66.2745 30.28 65.6245 28.58 65.6245 26.4C65.6245 24.42 66.2245 22.72 67.4245 21.3C68.6245 19.88 70.4445 19.17 72.8845 19.17C75.3245 19.17 77.1345 19.88 78.3145 21.3C79.5145 22.7 80.1145 24.35 80.1145 26.25ZM76.1245 26.13C76.1245 24.75 75.8045 23.74 75.1645 23.1C74.5245 22.46 73.7445 22.14 72.8245 22.14C71.8245 22.14 71.0345 22.5 70.4545 23.22C69.8945 23.92 69.6145 24.91 69.6145 26.19C69.6145 27.35 69.8745 28.33 70.3945 29.13C70.9345 29.93 71.7345 30.33 72.7945 30.33C73.7945 30.33 74.5945 29.96 75.1945 29.22C75.8145 28.46 76.1245 27.43 76.1245 26.13Z" fill="var(--fill-0, #0A0D12)"/>
<path d="M95.2931 33H80.6531V29.58H82.7531V16.92H80.6531V13.5H89.5031V16.92H86.7731V29.58H91.8731L92.4731 25.8L95.8931 26.1L95.2931 33Z" fill="var(--fill-0, #0A0D12)"/>
<path d="M97.6516 20.43C98.8316 19.95 99.8116 19.63 100.592 19.47C101.392 19.29 102.342 19.2 103.442 19.2C104.902 19.2 106.162 19.58 107.222 20.34C108.282 21.1 108.812 22.25 108.812 23.79V29.67C108.812 30.37 109.122 30.72 109.742 30.72C109.922 30.72 110.112 30.69 110.312 30.63L110.342 32.67C109.562 33.09 108.752 33.3 107.912 33.3C106.132 33.3 105.142 32.41 104.942 30.63V30.6C104.562 31.28 104.012 31.9 103.292 32.46C102.592 33.02 101.692 33.3 100.592 33.3C99.6116 33.3 98.6716 33.01 97.7716 32.43C96.8716 31.85 96.4216 30.85 96.4216 29.43C96.4216 27.77 97.0816 26.67 98.4016 26.13C99.7416 25.59 101.182 25.32 102.722 25.32C103.582 25.32 104.322 25.36 104.942 25.44V24.99C104.942 24.29 104.842 23.61 104.642 22.95C104.462 22.29 103.822 21.96 102.722 21.96C102.322 21.96 101.952 21.99 101.612 22.05C101.292 22.09 100.972 22.19 100.652 22.35L100.142 24.27L97.0516 23.94L97.6516 20.43ZM104.942 27.48V27.3C104.622 27.26 104.292 27.22 103.952 27.18C103.632 27.14 103.312 27.12 102.992 27.12C102.312 27.12 101.712 27.25 101.192 27.51C100.672 27.75 100.412 28.24 100.412 28.98C100.412 29.42 100.532 29.79 100.772 30.09C101.012 30.39 101.422 30.54 102.002 30.54C102.682 30.54 103.312 30.3 103.892 29.82C104.492 29.32 104.842 28.54 104.942 27.48Z" fill="var(--fill-0, #0A0D12)"/>
<path d="M126.087 25.92C126.087 27.92 125.557 29.65 124.497 31.11C123.457 32.57 121.917 33.3 119.877 33.3C117.817 33.3 116.367 32.52 115.527 30.96C115.487 31.3 115.437 31.64 115.377 31.98C115.337 32.32 115.287 32.66 115.227 33H111.357C111.497 32.3 111.617 31.6 111.717 30.9C111.817 30.2 111.867 29.51 111.867 28.83V15.3H110.067V12.36H115.737V22.05C116.097 21.27 116.637 20.6 117.357 20.04C118.097 19.48 119.077 19.2 120.297 19.2C121.997 19.2 123.387 19.79 124.467 20.97C125.547 22.15 126.087 23.8 126.087 25.92ZM122.067 26.25C122.067 24.95 121.787 23.96 121.227 23.28C120.667 22.6 119.927 22.26 119.007 22.26C117.967 22.26 117.157 22.64 116.577 23.4C116.017 24.16 115.737 25.04 115.737 26.04V26.37C115.737 27.47 116.007 28.4 116.547 29.16C117.107 29.9 117.897 30.27 118.917 30.27C119.797 30.27 120.537 29.95 121.137 29.31C121.757 28.65 122.067 27.63 122.067 26.25Z" fill="var(--fill-0, #0A0D12)"/>
<path d="M139.161 28.86C139.161 30.36 138.561 31.48 137.361 32.22C136.181 32.94 134.641 33.3 132.741 33.3C131.761 33.3 130.771 33.2 129.771 33C128.791 32.78 127.851 32.44 126.951 31.98L127.491 28.2L130.491 28.53V30.21C130.851 30.33 131.231 30.41 131.631 30.45C132.031 30.47 132.331 30.48 132.531 30.48C133.271 30.48 133.911 30.36 134.451 30.12C134.991 29.88 135.261 29.52 135.261 29.04C135.261 28.46 134.851 28.08 134.031 27.9C133.211 27.72 132.261 27.54 131.181 27.36C130.101 27.18 129.151 26.81 128.331 26.25C127.511 25.69 127.101 24.74 127.101 23.4C127.101 21.74 127.741 20.63 129.021 20.07C130.321 19.49 131.661 19.2 133.041 19.2C134.841 19.2 136.531 19.61 138.111 20.43L138.441 23.88L135.441 24.21L135.201 22.32C134.541 22.1 133.831 21.99 133.071 21.99C132.571 21.99 132.141 22.1 131.781 22.32C131.441 22.52 131.271 22.84 131.271 23.28C131.271 23.86 131.661 24.25 132.441 24.45C133.241 24.63 134.161 24.81 135.201 24.99C136.261 25.17 137.181 25.54 137.961 26.1C138.761 26.64 139.161 27.56 139.161 28.86Z" fill="var(--fill-0, #0A0D12)"/>
</g>
</g>
</svg>
