<svg preserveAspectRatio="none" width="100%" height="100%" overflow="visible" style="display: block;" viewBox="0 0 115 48" fill="none" xmlns="http://www.w3.org/2000/svg">
<g id="Logotext">
<g id="Vector">
<path d="M8.12703 33.243C5.46303 33.243 3.43803 32.649 2.05203 31.461C0.684031 30.273 3.12924e-05 28.725 3.12924e-05 26.817H4.26603C4.30203 27.789 4.62603 28.572 5.23803 29.166C5.86803 29.742 6.88503 30.03 8.28903 30.03C9.36903 30.03 10.233 29.832 10.881 29.436C11.529 29.04 11.853 28.455 11.853 27.681C11.853 27.051 11.718 26.565 11.448 26.223C11.178 25.863 10.71 25.584 10.044 25.386C9.37803 25.188 8.45103 24.99 7.26303 24.792C4.99503 24.432 3.28503 23.82 2.13303 22.956C0.981031 22.074 0.405031 20.778 0.405031 19.068C0.405031 17.214 1.08903 15.756 2.45703 14.694C3.82503 13.614 5.70603 13.074 8.10003 13.074C9.64803 13.074 10.98 13.317 12.096 13.803C13.212 14.289 14.076 14.973 14.688 15.855C15.318 16.737 15.633 17.763 15.633 18.933H11.394C11.358 17.979 11.007 17.295 10.341 16.881C9.69303 16.467 8.90103 16.26 7.96503 16.26C6.97503 16.26 6.19203 16.467 5.61603 16.881C5.05803 17.277 4.77903 17.826 4.77903 18.528C4.77903 19.14 4.94103 19.599 5.26503 19.905C5.58903 20.211 6.09303 20.445 6.77703 20.607C7.47903 20.769 8.39703 20.949 9.53103 21.147C10.359 21.273 11.169 21.444 11.961 21.66C12.753 21.876 13.464 22.2 14.094 22.632C14.742 23.046 15.255 23.631 15.633 24.387C16.029 25.125 16.227 26.088 16.227 27.276C16.227 29.04 15.543 30.48 14.175 31.596C12.825 32.694 10.809 33.243 8.12703 33.243Z" fill="var(--fill-0, #0A0D12)"/>
<path d="M18.41 16.665V13.317H22.379V16.665H18.41ZM18.41 33V18.528H22.379V33H18.41Z" fill="var(--fill-0, #0A0D12)"/>
<path d="M30.9524 33.27C28.8464 33.27 27.2174 32.829 26.0654 31.947C24.9314 31.047 24.3734 29.877 24.3914 28.437H28.2794C28.2974 29.211 28.5674 29.769 29.0894 30.111C29.6294 30.435 30.2864 30.597 31.0604 30.597C31.8704 30.597 32.4824 30.462 32.8964 30.192C33.3104 29.904 33.5174 29.517 33.5174 29.031C33.5174 28.365 33.2744 27.933 32.7884 27.735C32.3204 27.537 31.5734 27.366 30.5474 27.222C29.4854 27.078 28.5134 26.871 27.6314 26.601C26.7494 26.313 26.0474 25.881 25.5254 25.305C25.0214 24.729 24.7694 23.91 24.7694 22.848C24.7694 21.318 25.3454 20.175 26.4974 19.419C27.6674 18.645 29.1974 18.258 31.0874 18.258C32.9414 18.258 34.4174 18.663 35.5154 19.473C36.6134 20.265 37.1804 21.381 37.2164 22.821H33.3284C33.3284 22.209 33.1124 21.741 32.6804 21.417C32.2664 21.093 31.6994 20.931 30.9794 20.931C30.2414 20.931 29.6834 21.075 29.3054 21.363C28.9274 21.633 28.7384 21.993 28.7384 22.443C28.7384 22.983 28.9814 23.361 29.4674 23.577C29.9534 23.793 30.7274 23.973 31.7894 24.117C32.5454 24.225 33.2654 24.36 33.9494 24.522C34.6334 24.666 35.2364 24.9 35.7584 25.224C36.2984 25.53 36.7214 25.962 37.0274 26.52C37.3514 27.06 37.5134 27.771 37.5134 28.653C37.5134 30.237 36.9284 31.407 35.7584 32.163C34.5884 32.901 32.9864 33.27 30.9524 33.27Z" fill="var(--fill-0, #0A0D12)"/>
<path d="M38.5719 37.509V34.242H40.2459C40.8399 34.242 41.3079 34.116 41.6499 33.864C42.0099 33.63 42.2799 33.261 42.4599 32.757L42.8109 31.866L37.2759 18.528H41.6229L44.2689 26.277L44.7279 27.816H44.8629L45.2949 26.277L47.7789 18.528H52.0179L46.3749 33.675C45.8169 35.187 45.0879 36.204 44.1879 36.726C43.3059 37.248 42.2439 37.509 41.0019 37.509H38.5719Z" fill="var(--fill-0, #0A0D12)"/>
<path d="M53.124 37.509V18.528H56.958L57.093 21.039H57.309C57.651 20.193 58.218 19.518 59.01 19.014C59.82 18.51 60.783 18.258 61.899 18.258C63.627 18.258 65.022 18.888 66.084 20.148C67.164 21.39 67.704 23.262 67.704 25.764C67.704 28.248 67.164 30.12 66.084 31.38C65.022 32.64 63.627 33.27 61.899 33.27C60.783 33.27 59.82 33.018 59.01 32.514C58.218 31.992 57.651 31.317 57.309 30.489H57.093V37.509H53.124ZM60.414 30.057C61.386 30.057 62.16 29.715 62.736 29.031C63.33 28.329 63.627 27.24 63.627 25.764C63.627 24.288 63.33 23.208 62.736 22.524C62.16 21.822 61.386 21.471 60.414 21.471C59.676 21.471 59.064 21.642 58.578 21.984C58.092 22.326 57.732 22.776 57.498 23.334C57.264 23.874 57.147 24.45 57.147 25.062V26.466C57.147 27.078 57.264 27.663 57.498 28.221C57.732 28.761 58.092 29.202 58.578 29.544C59.064 29.886 59.676 30.057 60.414 30.057Z" fill="var(--fill-0, #0A0D12)"/>
<path d="M69.6699 33V13.317H73.6389V21.147H73.8009C74.1969 20.193 74.8089 19.473 75.6369 18.987C76.4649 18.501 77.3919 18.258 78.4179 18.258C79.3899 18.258 80.2539 18.456 81.0099 18.852C81.7839 19.248 82.3959 19.887 82.8459 20.769C83.2959 21.633 83.521 22.794 83.521 24.252V33H79.5519V25.116C79.5519 23.892 79.3359 22.983 78.9039 22.389C78.4719 21.795 77.779 21.498 76.825 21.498C75.799 21.498 75.0069 21.849 74.4489 22.551C73.9089 23.235 73.6389 24.036 73.6389 24.954V33H69.6699Z" fill="var(--fill-0, #0A0D12)"/>
<path d="M91.0006 33.243C89.3266 33.243 88.0486 32.757 87.1666 31.785C86.2846 30.813 85.8436 29.4 85.8436 27.546V18.528H89.8126V26.493C89.8126 27.645 90.0196 28.527 90.4336 29.139C90.8656 29.733 91.5766 30.03 92.5666 30.03C93.5746 30.03 94.3486 29.688 94.8886 29.004C95.4466 28.302 95.7256 27.474 95.7256 26.52V18.528H99.6946V33H95.8876L95.7256 30.354H95.5366C95.1946 31.29 94.6096 32.01 93.7816 32.514C92.9716 33 92.0446 33.243 91.0006 33.243Z" fill="var(--fill-0, #0A0D12)"/>
<path d="M108.224 33.27C106.118 33.27 104.489 32.829 103.337 31.947C102.203 31.047 101.645 29.877 101.663 28.437H105.551C105.569 29.211 105.839 29.769 106.361 30.111C106.901 30.435 107.558 30.597 108.332 30.597C109.142 30.597 109.754 30.462 110.168 30.192C110.582 29.904 110.789 29.517 110.789 29.031C110.789 28.365 110.546 27.933 110.06 27.735C109.592 27.537 108.845 27.366 107.819 27.222C106.757 27.078 105.785 26.871 104.903 26.601C104.021 26.313 103.319 25.881 102.797 25.305C102.293 24.729 102.041 23.91 102.041 22.848C102.041 21.318 102.617 20.175 103.769 19.419C104.939 18.645 106.469 18.258 108.359 18.258C110.213 18.258 111.689 18.663 112.787 19.473C113.885 20.265 114.452 21.381 114.488 22.821H110.6C110.6 22.209 110.384 21.741 109.952 21.417C109.538 21.093 108.971 20.931 108.251 20.931C107.513 20.931 106.955 21.075 106.577 21.363C106.199 21.633 106.01 21.993 106.01 22.443C106.01 22.983 106.253 23.361 106.739 23.577C107.225 23.793 107.999 23.973 109.061 24.117C109.817 24.225 110.537 24.36 111.221 24.522C111.905 24.666 112.508 24.9 113.03 25.224C113.57 25.53 113.993 25.962 114.299 26.52C114.623 27.06 114.785 27.771 114.785 28.653C114.785 30.237 114.2 31.407 113.03 32.163C111.86 32.901 110.258 33.27 108.224 33.27Z" fill="var(--fill-0, #0A0D12)"/>
</g>
</g>
</svg>
