<svg preserveAspectRatio="none" width="100%" height="100%" overflow="visible" style="display: block;" viewBox="0 0 39 48" fill="none" xmlns="http://www.w3.org/2000/svg">
<g id="Logomark">
<path id="Vector" fillRule="evenodd" clipRule="evenodd" d="M26.6797 2.01388C27.1267 1.78062 27.6611 1.7876 28.1019 2.03247L38.2284 7.65748C38.7046 7.92204 39 8.42403 39 8.96885L38.9993 20.2184C38.9993 20.7772 38.6886 21.2897 38.1932 21.5482L12.3196 35.0478C11.8725 35.2811 11.3381 35.2741 10.8973 35.0291L0.773445 29.4043C0.297359 29.1397 0.00205755 28.638 0.00196254 28.0933L0 16.8436C-9.75132e-05 16.2847 0.310589 15.7721 0.806135 15.5135L26.6797 2.01388ZM3.00016 17.7526L3.00153 25.6188L25.8753 13.6842L25.874 5.81805L3.00016 17.7526ZM28.874 5.89309L28.8753 13.7108L35.9995 17.669L35.9999 9.85139L28.874 5.89309ZM34.3361 20.1768L27.3531 16.297L4.66512 28.1346L11.6481 32.0144L34.3361 20.1768Z" fill="var(--fill-0, #1570EF)"/>
<path id="Vector_2" opacity="0.5" fillRule="evenodd" clipRule="evenodd" d="M12.3203 46.2986C11.8733 46.5319 11.3389 46.5249 10.8981 46.28L0.771622 40.655C0.29535 40.3905 -2.99423e-05 39.8885 4.43759e-06 39.3436L0.000703511 28.0941C0.000737892 27.5353 0.311403 27.0228 0.806837 26.7643L26.6804 13.2647C27.1275 13.0314 27.6619 13.0384 28.1027 13.2834L38.2266 18.9082C38.7026 19.1728 38.9979 19.6745 38.998 20.2192L39 31.4689C39.0001 32.0278 38.6894 32.5404 38.1939 32.799L12.3203 46.2986ZM35.9998 30.5599L35.9985 22.6937L13.1247 34.6282L13.126 42.4944L35.9998 30.5599ZM10.126 42.4194L10.1247 34.6017L3.00055 30.6435L3.00006 38.4611L10.126 42.4194ZM4.66386 28.1357L11.6469 32.0155L34.3349 20.1779L27.3519 16.2981L4.66386 28.1357Z" fill="var(--fill-0, #1570EF)"/>
</g>
</svg>
