<svg preserveAspectRatio="none" width="100%" height="100%" overflow="visible" style="display: block;" viewBox="0 0 149 48" fill="none" xmlns="http://www.w3.org/2000/svg">
<g id="Logotext">
<g id="Vector">
<path d="M16.065 26.979C16.065 30.678 13.095 33.27 8.235 33.27C3.348 33.27 0.297 30.651 0 26.547H4.158C4.266 28.68 5.643 30.057 8.154 30.057C10.233 30.057 11.718 29.139 11.718 27.573C11.718 26.358 10.773 25.629 9.126 25.305L5.94 24.684C2.997 24.117 0.729 22.524 0.729 19.311C0.729 15.855 3.78 13.371 7.965 13.371C12.312 13.371 15.498 15.909 15.768 19.959H11.61C11.475 17.934 10.071 16.557 8.019 16.557C6.021 16.557 4.887 17.691 4.887 19.041C4.887 20.364 6.102 20.931 7.506 21.201L10.827 21.876C14.229 22.551 16.065 24.117 16.065 26.979Z" fill="var(--fill-0, #0A0D12)"/>
<path d="M26.7568 29.355V32.622C25.8388 33.081 24.9748 33.27 23.8678 33.27C20.8978 33.27 19.0348 31.569 19.0348 28.329V21.795H16.1188V18.582H19.0348V14.316H22.7608V18.582H26.8918V21.795H22.7608V27.465C22.7608 29.139 23.5168 29.814 24.8668 29.814C25.5688 29.814 26.2168 29.652 26.7568 29.355Z" fill="var(--fill-0, #0A0D12)"/>
<path d="M36.6894 33V31.218C35.7444 32.568 34.3134 33.27 32.3424 33.27C29.3454 33.27 27.3474 31.515 27.3474 28.815C27.3474 26.007 29.6154 24.495 33.8274 24.495C34.6374 24.495 35.3394 24.549 36.2304 24.657V23.793C36.2304 22.173 35.3124 21.228 33.7464 21.228C32.1264 21.228 31.1544 22.173 31.0194 23.793H27.6444C27.8604 20.472 30.2634 18.312 33.7464 18.312C37.5264 18.312 39.7404 20.391 39.7404 23.928V33H36.6894ZM30.8844 28.707C30.8844 29.922 31.7484 30.678 33.1524 30.678C35.0694 30.678 36.2304 29.625 36.2304 27.951V26.925C35.3394 26.79 34.7184 26.736 34.0704 26.736C31.9374 26.736 30.8844 27.411 30.8844 28.707Z" fill="var(--fill-0, #0A0D12)"/>
<path d="M47.9695 33.27C43.8115 33.27 40.9495 30.192 40.9495 25.791C40.9495 21.471 43.9195 18.312 47.9695 18.312C51.7225 18.312 54.5035 20.85 54.9625 24.738H51.0205C50.8315 22.821 49.6705 21.633 47.9695 21.633C46.0255 21.633 44.7835 23.226 44.7835 25.791C44.7835 28.383 45.9985 29.949 47.9695 29.949C49.6975 29.949 50.8045 28.815 51.0205 26.844H54.9625C54.5305 30.813 51.8305 33.27 47.9695 33.27Z" fill="var(--fill-0, #0A0D12)"/>
<path d="M60.045 33H56.292V13.614H60.045V24.684L65.3101 18.582H69.6301L63.663 25.494L70.332 33H65.553L60.045 26.304V33Z" fill="var(--fill-0, #0A0D12)"/>
<path d="M84.5376 25.791C84.5376 21.525 87.0486 18.312 90.9366 18.312C92.6646 18.312 94.1226 19.068 95.2026 20.445V13.614H98.9286V33H95.4996V30.921C94.3656 32.433 92.7996 33.27 90.9366 33.27C87.0486 33.27 84.5376 30.003 84.5376 25.791ZM88.3986 25.791C88.3986 28.491 89.9376 29.922 91.7736 29.922C93.6366 29.922 95.1756 28.464 95.1756 25.737C95.1756 23.01 93.6096 21.633 91.7736 21.633C89.9376 21.633 88.3986 23.037 88.3986 25.791Z" fill="var(--fill-0, #0A0D12)"/>
<path d="M118.613 33H106.085V13.614H110.189V29.301H118.613V33Z" fill="var(--fill-0, #0A0D12)"/>
<path d="M128.613 33V31.218C127.668 32.568 126.237 33.27 124.266 33.27C121.269 33.27 119.271 31.515 119.271 28.815C119.271 26.007 121.539 24.495 125.751 24.495C126.561 24.495 127.263 24.549 128.154 24.657V23.793C128.154 22.173 127.236 21.228 125.67 21.228C124.05 21.228 123.078 22.173 122.943 23.793H119.568C119.784 20.472 122.187 18.312 125.67 18.312C129.45 18.312 131.664 20.391 131.664 23.928V33H128.613ZM122.808 28.707C122.808 29.922 123.672 30.678 125.076 30.678C126.993 30.678 128.154 29.625 128.154 27.951V26.925C127.263 26.79 126.642 26.736 125.994 26.736C123.861 26.736 122.808 27.411 122.808 28.707Z" fill="var(--fill-0, #0A0D12)"/>
<path d="M148.209 25.791C148.209 30.003 145.698 33.27 141.81 33.27C139.947 33.27 138.381 32.433 137.274 30.921V33H133.818V13.614H137.571V20.445C138.624 19.041 140.082 18.312 141.81 18.312C145.698 18.312 148.209 21.525 148.209 25.791ZM144.348 25.791C144.348 23.037 142.809 21.633 140.973 21.633C139.164 21.633 137.598 23.01 137.598 25.737C137.598 28.464 139.11 29.922 140.973 29.922C142.809 29.922 144.348 28.491 144.348 25.791Z" fill="var(--fill-0, #0A0D12)"/>
<path d="M77.1896 33.243C81.1316 33.243 83.9126 30.921 83.9396 27.627H80.2946C80.1866 29.274 78.9986 30.273 77.1356 30.273C75.1916 30.273 74.0576 29.301 74.0576 27.681C74.0576 26.088 75.3806 25.143 77.6216 25.143H79.5926V22.173H77.8376C76.0016 22.173 74.8946 21.255 74.8946 19.77C74.8946 18.339 75.8396 17.448 77.4056 17.448C78.9446 17.448 79.9166 18.42 79.9436 20.013H83.5886C83.5616 16.854 80.8076 14.478 77.2166 14.478C73.3826 14.478 71.0336 16.557 71.0336 19.5C71.0336 21.174 72.0056 22.497 73.7606 23.415C71.4926 24.144 70.1966 25.602 70.1966 27.573C70.1966 30.948 73.0046 33.243 77.1896 33.243Z" fill="var(--fill-0, #0A0D12)"/>
</g>
</g>
</svg>
