<svg preserveAspectRatio="none" width="100%" height="100%" overflow="visible" style="display: block;" viewBox="0 0 143 48" fill="none" xmlns="http://www.w3.org/2000/svg">
<g id="Logotext">
<g id="Vector">
<path d="M17.145 33.0005L14.148 22.4435L13.716 20.4995L13.257 22.4435L10.287 33.0005H5.427L0 14.6405H4.617L7.56 26.6825L8.046 28.8695L8.532 26.6825L11.934 14.6405H15.714L19.089 26.6825L19.575 28.8695L20.061 26.6825L23.004 14.6405H27.378L21.951 33.0005H17.145Z" fill="var(--fill-0, #0A0D12)"/>
<path d="M31.6634 23.2805H27.5324C27.9644 20.0135 30.4754 18.0155 34.2014 18.0155C38.3594 18.0155 40.5194 20.4455 40.5194 23.8205V29.3825C40.5194 31.2725 40.6814 32.2445 40.9244 33.0005H36.6584C36.5234 32.5145 36.4424 31.8935 36.4154 31.1915C35.2814 32.7575 33.5534 33.4325 31.8254 33.4325C29.0714 33.4325 27.0194 32.0285 27.0194 29.2475C27.0194 27.2765 28.1534 25.7645 30.4484 24.9545C32.3384 24.3335 34.1474 24.1445 36.3884 24.1175V23.7935C36.3884 22.2005 35.6054 21.3635 34.0124 21.3635C32.6084 21.3635 31.8524 22.1465 31.6634 23.2805ZM31.1504 28.9775C31.1504 29.9495 31.8794 30.5705 33.0944 30.5705C34.9304 30.5705 36.3884 29.0855 36.3884 27.0875V26.5205C32.2034 26.6015 31.1504 27.6275 31.1504 28.9775Z" fill="var(--fill-0, #0A0D12)"/>
<path d="M42.9201 33.0005V18.4745H47.0511V20.4995C47.9691 18.7715 49.3731 18.0155 50.8581 18.0155C51.4521 18.0155 51.9921 18.1775 52.2891 18.4745V21.9575C51.8031 21.8495 51.2901 21.7955 50.6421 21.7955C48.1581 21.7955 47.0511 23.1995 47.0511 25.4945V33.0005H42.9201Z" fill="var(--fill-0, #0A0D12)"/>
<path d="M57.5326 38.9675H53.4016V18.4745H57.5326V19.9865C58.4236 18.7175 59.6656 18.0155 61.1776 18.0155C64.9306 18.0155 67.2796 20.9585 67.2796 25.7105C67.2796 30.6515 64.8766 33.4325 61.1776 33.4325C59.6386 33.4325 58.3966 32.7845 57.5326 31.5425V38.9675ZM60.3136 21.3635C58.4776 21.3635 57.5326 22.9025 57.5326 25.7105C57.5326 28.5185 58.5046 30.0845 60.3136 30.0845C62.0956 30.0845 63.0406 28.5455 63.0406 25.7105C63.0406 22.9025 62.0686 21.3635 60.3136 21.3635Z" fill="var(--fill-0, #0A0D12)"/>
<path d="M72.5102 22.4975C72.5102 25.3595 81.5012 22.8485 81.5012 28.5995C81.5012 31.4615 78.8552 33.4325 75.0752 33.4325C71.4032 33.4325 68.7572 31.8125 68.2172 28.2215H72.3482C72.5372 29.5715 73.6442 30.3005 75.1832 30.3005C76.6412 30.3005 77.3702 29.7335 77.3702 28.8425C77.3702 26.0345 68.5682 28.5455 68.5682 22.7135C68.5682 20.2835 70.5392 18.0155 74.4272 18.0155C77.9102 18.0155 80.5562 19.6085 80.9612 23.2805H76.8572C76.6142 21.7955 75.7502 21.1745 74.2922 21.1745C73.2122 21.1745 72.5102 21.7145 72.5102 22.4975Z" fill="var(--fill-0, #0A0D12)"/>
<path d="M87.1703 38.9675H83.0393V18.4745H87.1703V19.9865C88.0613 18.7175 89.3033 18.0155 90.8153 18.0155C94.5683 18.0155 96.9174 20.9585 96.9174 25.7105C96.9174 30.6515 94.5143 33.4325 90.8153 33.4325C89.2763 33.4325 88.0343 32.7845 87.1703 31.5425V38.9675ZM89.9513 21.3635C88.1153 21.3635 87.1703 22.9025 87.1703 25.7105C87.1703 28.5185 88.1423 30.0845 89.9513 30.0845C91.7333 30.0845 92.6783 28.5455 92.6783 25.7105C92.6783 22.9025 91.7063 21.3635 89.9513 21.3635Z" fill="var(--fill-0, #0A0D12)"/>
<path d="M112.246 28.2215C111.49 31.5695 108.79 33.4325 105.226 33.4325C100.717 33.4325 97.936 30.5165 97.936 25.7375C97.936 20.7965 100.744 18.0155 105.064 18.0155C109.411 18.0155 112.138 20.9045 112.138 25.6565V26.5745H102.148C102.364 28.8965 103.444 30.1385 105.226 30.1385C106.576 30.1385 107.494 29.5445 107.926 28.2215H112.246ZM105.064 21.3095C103.525 21.3095 102.553 22.3085 102.229 24.1985H107.872C107.548 22.3085 106.576 21.3095 105.064 21.3095Z" fill="var(--fill-0, #0A0D12)"/>
<path d="M127.553 28.2215C126.797 31.5695 124.097 33.4325 120.533 33.4325C116.024 33.4325 113.243 30.5165 113.243 25.7375C113.243 20.7965 116.051 18.0155 120.371 18.0155C124.718 18.0155 127.445 20.9045 127.445 25.6565V26.5745H117.455C117.671 28.8965 118.751 30.1385 120.533 30.1385C121.883 30.1385 122.801 29.5445 123.233 28.2215H127.553ZM120.371 21.3095C118.832 21.3095 117.86 22.3085 117.536 24.1985H123.179C122.855 22.3085 121.883 21.3095 120.371 21.3095Z" fill="var(--fill-0, #0A0D12)"/>
<path d="M134.624 33.4325C130.898 33.4325 128.549 30.5165 128.549 25.7375C128.549 20.7965 130.952 18.0155 134.624 18.0155C136.163 18.0155 137.405 18.6635 138.296 19.9055V13.5605H142.427V33.0005H138.296V31.4615C137.405 32.7305 136.136 33.4325 134.624 33.4325ZM135.515 30.0845C137.351 30.0845 138.296 28.5725 138.296 25.7375C138.296 22.9295 137.324 21.3635 135.515 21.3635C133.733 21.3635 132.788 22.9025 132.788 25.7375C132.788 28.5455 133.76 30.0845 135.515 30.0845Z" fill="var(--fill-0, #0A0D12)"/>
</g>
</g>
</svg>
